<svg xmlns="http://www.w3.org/2000/svg" width="916" height="455" viewBox="0 0 916 455">
  <g id="illustration-devices" transform="translate(-44 -9)">
    <g id="Group_19" data-name="Group 19" transform="translate(184 9)">
      <rect id="Rectangle_1" data-name="Rectangle 1" width="635" height="434" rx="12" transform="translate(81)" fill="#191d36"/>
      <rect id="Rectangle_2" data-name="Rectangle 2" width="629" height="428" rx="10" transform="translate(84 3)" fill="#0b0e21"/>
      <rect id="Rectangle_3" data-name="Rectangle 3" width="603" height="402" rx="5" transform="translate(97 16)" fill="#16171b"/>
      <g id="Group_16" data-name="Group 16" transform="translate(100 18)">
        <rect id="Rectangle_4" data-name="Rectangle 4" width="597.554" height="396.861" rx="3" fill="#ebedf4"/>
        <g id="Group_11" data-name="Group 11">
          <g id="Group_10" data-name="Group 10" transform="translate(129 14)">
            <g id="Group_5" data-name="Group 5" transform="translate(0 75)">
              <rect id="Rectangle_5" data-name="Rectangle 5" width="331" height="47" rx="5" fill="#fff"/>
              <g id="Group_4" data-name="Group 4" transform="translate(16 18)">
                <rect id="Rectangle_6" data-name="Rectangle 6" width="53" height="5" rx="2.5" fill="#b1b4c7"/>
                <rect id="Rectangle_7" data-name="Rectangle 7" width="34" height="5" rx="2.5" transform="translate(0 9)" fill="#d4d7e6"/>
                <g id="Group_1" data-name="Group 1" transform="translate(75)">
                  <rect id="Rectangle_8" data-name="Rectangle 8" width="53" height="5" rx="2.5" fill="#b1b4c7"/>
                  <rect id="Rectangle_9" data-name="Rectangle 9" width="34" height="5" rx="2.5" transform="translate(0 9)" fill="#d4d7e6"/>
                </g>
                <g id="Group_2" data-name="Group 2" transform="translate(177)">
                  <rect id="Rectangle_10" data-name="Rectangle 10" width="53" height="5" rx="2.5" fill="#b1b4c7"/>
                  <rect id="Rectangle_11" data-name="Rectangle 11" width="34" height="5" rx="2.5" transform="translate(0 9)" fill="#d4d7e6"/>
                </g>
                <g id="Group_3" data-name="Group 3" transform="translate(250)">
                  <rect id="Rectangle_12" data-name="Rectangle 12" width="53" height="5" rx="2.5" fill="#b1b4c7"/>
                  <rect id="Rectangle_13" data-name="Rectangle 13" width="34" height="5" rx="2.5" transform="translate(0 9)" fill="#d4d7e6"/>
                </g>
              </g>
            </g>
            <g id="Group_8" data-name="Group 8" transform="translate(0 136)">
              <rect id="Rectangle_14" data-name="Rectangle 14" width="331" height="184" rx="5" fill="#fff"/>
              <g id="Group_7" data-name="Group 7">
                <g id="Group_6" data-name="Group 6" transform="translate(-33 32)">
                  <path id="Rectangle_15" data-name="Rectangle 15" d="M0,0H157a12,12,0,0,1,12,12v0a12,12,0,0,1-12,12H0a0,0,0,0,1,0,0V0A0,0,0,0,1,0,0Z" transform="translate(32)" fill="#ff5e5e"/>
                  <path id="Rectangle_16" data-name="Rectangle 16" d="M0,0H157a12,12,0,0,1,12,12v0a12,12,0,0,1-12,12H0a0,0,0,0,1,0,0V0A0,0,0,0,1,0,0Z" transform="translate(32 96)" fill="#ff5e5e"/>
                  <rect id="Rectangle_17" data-name="Rectangle 17" width="24" height="24" rx="12" transform="translate(209)" fill="#bc4747"/>
                  <rect id="Rectangle_18" data-name="Rectangle 18" width="88" height="24" rx="12" transform="translate(209 32)" fill="#ff5e5e"/>
                  <rect id="Rectangle_19" data-name="Rectangle 19" width="114" height="24" rx="12" transform="translate(87 31.547)" fill="#bc4747"/>
                  <rect id="Rectangle_20" data-name="Rectangle 20" width="50" height="24" rx="12" transform="translate(247 64.53)" fill="#ff5e5e"/>
                  <path id="Rectangle_21" data-name="Rectangle 21" d="M0,0H35A12,12,0,0,1,47,12v0A12,12,0,0,1,35,24H0a0,0,0,0,1,0,0V0A0,0,0,0,1,0,0Z" transform="translate(32 63.925)" fill="#ff5e5e"/>
                  <rect id="Rectangle_22" data-name="Rectangle 22" width="24" height="24" rx="12" transform="translate(305 32)" fill="#bc4747"/>
                </g>
              </g>
            </g>
            <rect id="Rectangle_23" data-name="Rectangle 23" width="77" height="5" rx="2.5" fill="#cbcedc"/>
            <g id="Group_9" data-name="Group 9" transform="translate(0 26)">
              <rect id="Rectangle_24" data-name="Rectangle 24" width="66" height="19" rx="9.5" fill="#8c90a3"/>
              <rect id="Rectangle_25" data-name="Rectangle 25" width="31" height="19" rx="9.5" transform="translate(76 0.288)" fill="#8c90a3"/>
              <rect id="Rectangle_26" data-name="Rectangle 26" width="31" height="19" rx="9.5" transform="translate(115)" fill="#8c90a3"/>
            </g>
          </g>
        </g>
        <g id="Group_15" data-name="Group 15">
          <path id="Path_1" data-name="Path 1" d="M0,0H107V397H0Z" fill="#353740" fill-rule="evenodd"/>
          <g id="Group_14" data-name="Group 14" transform="translate(15 12)">
            <rect id="Rectangle_27" data-name="Rectangle 27" width="77" height="5" rx="2.5" transform="translate(0 68)" fill="#4a4e5d"/>
            <rect id="Rectangle_28" data-name="Rectangle 28" width="77" height="5" rx="2.5" transform="translate(0 87)" fill="#4a4e5d"/>
            <rect id="Rectangle_29" data-name="Rectangle 29" width="77" height="5" rx="2.5" transform="translate(0 106)" fill="#4a4e5d"/>
            <rect id="Rectangle_30" data-name="Rectangle 30" width="77" height="5" rx="2.5" transform="translate(0 125)" fill="#4a4e5d"/>
            <rect id="Rectangle_31" data-name="Rectangle 31" width="77" height="5" rx="2.5" transform="translate(0 144)" fill="#4a4e5d"/>
            <rect id="Rectangle_32" data-name="Rectangle 32" width="77" height="5" rx="2.5" transform="translate(0 366)" fill="#4a4e5d"/>
            <g id="Group_13" data-name="Group 13" transform="translate(0 25)">
              <g id="Group_12" data-name="Group 12" transform="translate(24 2)">
                <rect id="Rectangle_33" data-name="Rectangle 33" width="53" height="5" rx="2.5" fill="#7b7f90"/>
                <rect id="Rectangle_34" data-name="Rectangle 34" width="34" height="5" rx="2.5" transform="translate(0 9)" fill="#4a4e5d"/>
              </g>
              <circle id="Ellipse_1" data-name="Ellipse 1" cx="9" cy="9" r="9" fill="#ff5e5e"/>
            </g>
            <rect id="Rectangle_35" data-name="Rectangle 35" width="77" height="9" rx="4.5" fill="#8c90a3"/>
          </g>
        </g>
      </g>
      <g id="Group_17" data-name="Group 17" transform="translate(387 8)" opacity="0.098">
        <rect id="Rectangle_36" data-name="Rectangle 36" width="15.64" height="4" rx="2" fill="#4a5166"/>
        <rect id="Rectangle_37" data-name="Rectangle 37" width="3.68" height="4" rx="1.84" transform="translate(19.32)" fill="#4a5166"/>
      </g>
      <g id="Group_18" data-name="Group 18" transform="translate(0 430)">
        <path id="Path_2" data-name="Path 2" d="M3,0H772.629a3,3,0,0,1,3,3V19.006H0V3A3,3,0,0,1,3,0Z" fill="#242942"/>
        <rect id="Rectangle_38" data-name="Rectangle 38" width="126.689" height="57.968" rx="10" transform="translate(324.47 -46.564)" fill="#2e334f"/>
      </g>
      <path id="Path_3" data-name="Path 3" d="M0,448H776a7,7,0,0,1-7,7H7A7,7,0,0,1,0,448Z" fill="#1a1c27"/>
    </g>
    <g id="Group_20" data-name="Group 20" transform="translate(44 9.21)">
      <rect id="Rectangle_39" data-name="Rectangle 39" width="167" height="341" rx="12"/>
      <rect id="Rectangle_40" data-name="Rectangle 40" width="167" height="341" rx="12" fill="#242942"/>
    </g>
    <g id="Group_25" data-name="Group 25" transform="translate(50 15)">
      <rect id="Rectangle_41" data-name="Rectangle 41" width="155" height="330" rx="9" fill="#ebedf4"/>
      <g id="Group_24" data-name="Group 24">
        <path id="Path_4" data-name="Path 4" d="M0,0H155V77H0Z" fill="#353740" fill-rule="evenodd"/>
        <g id="Group_23" data-name="Group 23" transform="translate(8 108)">
          <rect id="Rectangle_42" data-name="Rectangle 42" width="140" height="184" rx="5" fill="#fff"/>
          <g id="Group_22" data-name="Group 22">
            <g id="Group_21" data-name="Group 21" transform="translate(293 32) rotate(180)">
              <path id="Rectangle_43" data-name="Rectangle 43" d="M0,0H36A12,12,0,0,1,48,12v0A12,12,0,0,1,36,24H0a0,0,0,0,1,0,0V0A0,0,0,0,1,0,0Z" transform="translate(153 -24)" fill="#ff5e5e"/>
              <path id="Rectangle_44" data-name="Rectangle 44" d="M0,0H36A12,12,0,0,1,48,12v0A12,12,0,0,1,36,24H0a0,0,0,0,1,0,0V0A0,0,0,0,1,0,0Z" transform="translate(153 -120)" fill="#ff5e5e"/>
              <rect id="Rectangle_45" data-name="Rectangle 45" width="24" height="24" rx="12" transform="translate(209 -24)" fill="#bc4747"/>
              <path id="Rectangle_46" data-name="Rectangle 46" d="M12,0H75a9,9,0,0,1,9,9v6a9,9,0,0,1-9,9H12A12,12,0,0,1,0,12v0A12,12,0,0,1,12,0Z" transform="translate(209 -56)" fill="#ff5e5e"/>
              <path id="Rectangle_47" data-name="Rectangle 47" d="M0,0H36A12,12,0,0,1,48,12v0A12,12,0,0,1,36,24H1a1,1,0,0,1-1-1V0A0,0,0,0,1,0,0Z" transform="translate(153 -55.547)" fill="#bc4747"/>
              <path id="Rectangle_48" data-name="Rectangle 48" d="M9,0H34A12,12,0,0,1,46,12v0A12,12,0,0,1,34,24H9a9,9,0,0,1-9-9V9A9,9,0,0,1,9,0Z" transform="translate(247 -88.53)" fill="#ff5e5e"/>
            </g>
          </g>
        </g>
        <rect id="Rectangle_51" data-name="Rectangle 51" width="140" height="47" rx="5" transform="translate(8 52)" fill="#fff"/>
        <rect id="Rectangle_52" data-name="Rectangle 52" width="77" height="5" rx="2.5" transform="translate(37 21)" fill="#4a4e5d"/>
      </g>
    </g>
    <g id="Group_26" data-name="Group 26" transform="translate(74 85)">
      <rect id="Rectangle_53" data-name="Rectangle 53" width="102" height="5" rx="2.5" fill="#b1b4c7"/>
      <rect id="Rectangle_54" data-name="Rectangle 54" width="65" height="5" rx="2.5" transform="translate(0 9)" fill="#d4d7e6"/>
    </g>
  </g>
</svg>
